<svg id="Ebene_1" data-name="Ebene 1" xmlns="http://www.w3.org/2000/svg" width="364.5" height="451.51" viewBox="0 0 364.5 451.51">
  <defs>
    <style>
      .cls-1 {
        fill: #fff;
      }
    </style>
  </defs>
  <path class="cls-1" d="M67.75,33.47a821.84,821.84,0,0,1,121.94-9.22c82.39,0,141.05,19.11,179.94,55.36,39.55,36.26,62.62,87.67,62.62,159.51,0,72.51-22.41,131.83-63.94,172.7-41.52,41.52-110.07,63.93-196.42,63.93-40.86,0-75.14-2-104.14-5.27Z" transform="translate(-67.75 -24.25)"/>
  <path d="M139.5,361.76a146.71,146.71,0,0,0,74.23,20.94c42.36,0,67.1-22.37,67.1-54.73,0-30-17.13-47.11-60.43-63.76-52.35-18.56-84.71-45.69-84.71-90.9,0-50,41.4-87.08,103.74-87.08,32.84,0,56.63,7.61,70.91,15.7l-11.43,33.79A127.7,127.7,0,0,0,238,120.49c-43.78,0-60.43,26.18-60.43,48.07,0,30,19.51,44.73,63.76,61.86,54.25,20.94,81.85,47.11,81.85,94.22,0,49.49-36.64,92.32-112.3,92.32-30.93,0-64.72-9-81.85-20.46Z" transform="translate(-67.75 -24.25)"/>
</svg>
